# xmcd
#
# Track frame offsets:
# 150
# 19543
# 36881
# 60641
# 81779
# 102015
# 129798
# 145604
# 165348
# 181887
# 203868
#
# Disc length: 3250 seconds
#
#
# Revision: 0
# Processed by: cddbd v1.5.2PL0 Copyright (c) Steve Scherf et al.
# Submitted via: Nero 7, 11, 10, 0 
#
DISCID=7d0cb00b
DTITLE=Aaron King and The Imperials - Solid!
DYEAR=1998
DGENRE=Blues
TTITLE0=Solid!
TTITLE1=I Still Love You
TTITLE2=All Your Love
TTITLE3=She Was A Friend Of Mine
TTITLE4=WAHOO
TTITLE5=Jelly, Jelly, Jelly
TTITLE6=Day You Left Me
TTITLE7=Goodness Gracious
TTITLE8=I Didn't Know
TTITLE9=Funny How Time Slips Away
TTITLE10=Bop, Skip and A Jump
EXTD=
EXTT0=Solid!
EXTT1=I Still Love You
EXTT2=All Your Love
EXTT3=She Was A Friend Of Mine
EXTT4=WAHOO
EXTT5=Jelly, Jelly, Jelly
EXTT6=Day You Left Me
EXTT7=Goodness Gracious
EXTT8=I Didn't Know
EXTT9=Funny How Time Slips Away
EXTT10=Bop, Skip and A Jump
PLAYORDER=
